<?xml version="1.0" standalone="no"?><!DOCTYPE svg PUBLIC "-//W3C//DTD SVG 1.1//EN" "http://www.w3.org/Graphics/SVG/1.1/DTD/svg11.dtd"><svg t="1513847326207" class="icon" style="" viewBox="0 0 1024 1024" version="1.1" xmlns="http://www.w3.org/2000/svg" p-id="20195" xmlns:xlink="http://www.w3.org/1999/xlink" width="200" height="200"><defs><style type="text/css"></style></defs><path d="M818.501818 46.545455H201.774545a93.090909 93.090909 0 0 0-93.090909 93.090909v756.130909a93.090909 93.090909 0 0 0 93.090909 93.090909 93.090909 93.090909 0 0 0 60.509091-23.272727l4.887273-4.887273 243.2-242.036364 239.709091 239.709091 5.818182 5.818182 2.327273 2.327273a93.090909 93.090909 0 0 0 60.043636 23.272727 93.090909 93.090909 0 0 0 93.090909-93.090909V139.636364a93.090909 93.090909 0 0 0-92.858182-93.090909z m46.545455 768v80.058181a46.545455 46.545455 0 0 1-46.545455 46.545455A46.545455 46.545455 0 0 1 788.945455 930.909091l-6.05091-6.050909-53.76-53.76-186.181818-186.181818-32.814545-32.814546-32.814546 32.814546-186.181818 186.181818-56.32 57.483636a46.545455 46.545455 0 0 1-79.127273-33.047273V139.636364a46.545455 46.545455 0 0 1 46.545455-46.545455h616.727273a46.545455 46.545455 0 0 1 46.545454 46.545455z" fill="#4A94FF" p-id="20196"></path><path d="M572.276364 312.785455L510.138182 186.181818l-62.370909 126.370909-139.636364 20.247273 100.770909 98.210909-23.272727 139.636364 124.509091-65.629091 124.509091 65.629091-23.272728-139.636364 100.77091-98.210909z m0 172.218181l-62.836364-33.047272-62.836364 33.047272 12.101819-69.818181-50.734546-49.57091 69.818182-10.24 31.418182-63.534545 31.418182 63.534545 69.818181 10.24-49.570909 49.57091z" fill="#4A94FF" p-id="20197"></path></svg>