<?xml version="1.0" standalone="no"?><!DOCTYPE svg PUBLIC "-//W3C//DTD SVG 1.1//EN" "http://www.w3.org/Graphics/SVG/1.1/DTD/svg11.dtd"><svg t="1513847786625" class="icon" style="" viewBox="0 0 1024 1024" version="1.1" xmlns="http://www.w3.org/2000/svg" p-id="49150" xmlns:xlink="http://www.w3.org/1999/xlink" width="200" height="200"><defs><style type="text/css"></style></defs><path d="M853.19333 384.02367a34.119333 34.119333 0 1 1 68.238666 0v443.55133a170.596665 170.596665 0 0 1-170.596665 170.596665H204.926003a170.596665 170.596665 0 0 1-170.596665-170.596665v-614.147995a170.596665 170.596665 0 0 1 170.596665-170.596665h409.431996a34.119333 34.119333 0 1 1 0 68.238666H204.926003a102.357999 102.357999 0 0 0-102.357999 102.357999v614.147995a102.357999 102.357999 0 0 0 102.357999 102.357999h545.909328a102.357999 102.357999 0 0 0 102.357999-102.357999v-443.55133z m-580.028661 0h272.954664a34.119333 34.119333 0 1 1 0 68.238666H273.164669a34.119333 34.119333 0 0 1 0-68.238666z m0 238.835332h409.431996a34.119333 34.119333 0 1 1 0 68.238666H273.164669a34.119333 34.119333 0 0 1 0-68.238666z m342.899297-322.939488L905.600626 10.416974a34.119333 34.119333 0 1 1 48.244737 48.244736l-289.53666 289.502541a34.119333 34.119333 0 0 1-48.244737-48.244737z" fill="#00AAA9" p-id="49151"></path></svg>