<?xml version="1.0" standalone="no"?><!DOCTYPE svg PUBLIC "-//W3C//DTD SVG 1.1//EN" "http://www.w3.org/Graphics/SVG/1.1/DTD/svg11.dtd"><svg t="1513925301649" class="icon" style="" viewBox="0 0 1024 1024" version="1.1" xmlns="http://www.w3.org/2000/svg" p-id="2864" xmlns:xlink="http://www.w3.org/1999/xlink" width="200" height="200"><defs><style type="text/css"></style></defs><path d="M810.56 0H213.504A213.44 213.44 0 0 0 0 213.44v597.12A213.44 213.44 0 0 0 213.504 1024h597.056A213.44 213.44 0 0 0 1024 810.56v-597.12A213.44 213.44 0 0 0 810.56 0m-346.88 64c43.968 0 79.296 35.136 79.296 78.784a79.36 79.36 0 1 1-158.656 0c0-43.712 35.584-78.784 79.36-78.784m51.072 896c-164.8 0-298.24-132.608-298.24-296.064 0-106.112 56.512-198.08 140.864-250.368l4.288 73.216a232.576 232.576 0 0 0-82.752 177.152c0 129.472 105.6 234.048 235.84 234.048a234.88 234.88 0 0 0 229.696-185.728l41.856 72.064A297.728 297.728 0 0 1 514.752 960m398.656-136.192a47.744 47.744 0 0 1-63.68-15.808l-105.152-180.672H487.232c-41.792 0-77.248-29.76-80.704-71.744l-13.888-239.168a76.8 76.8 0 0 1 72.448-80.448 77.248 77.248 0 0 1 80.768 71.616l5.12 57.408h148.416c20.032 0.64 35.776 16 35.776 35.776 0 19.968-16.128 34.816-35.776 35.968H555.2l1.984 69.824h198.528c15.232 0.448 29.952 8.32 38.336 22.272l135.36 232c12.352 22.784 5.76 49.856-16 62.976" p-id="2865" fill="#1296db"></path></svg>