<?xml version="1.0" standalone="no"?><!DOCTYPE svg PUBLIC "-//W3C//DTD SVG 1.1//EN" "http://www.w3.org/Graphics/SVG/1.1/DTD/svg11.dtd"><svg t="1513914509961" class="icon" style="" viewBox="0 0 1024 1024" version="1.1" xmlns="http://www.w3.org/2000/svg" p-id="1352" xmlns:xlink="http://www.w3.org/1999/xlink" width="200" height="200"><defs><style type="text/css"></style></defs><path d="M780.475733 21.333333H243.524267C120.814933 21.333333 21.333333 120.7808 21.333333 243.515733v536.968534c0 122.658133 99.4816 222.1824 222.190934 222.1824h536.96c122.7008 0 222.190933-99.524267 222.190933-222.1824V243.515733C1002.666667 120.7808 903.185067 21.333333 780.475733 21.333333zM359.2448 342.749867V726.954667c-1.553067 21.546667-13.1328 33.1264-34.7136 34.705066-21.632-1.5872-33.2032-12.356267-34.722133-32.401066V490.871467c-23.1424 21.632-41.659733 16.2048-55.543467-16.196267 0-9.258667 6.144-28.4928 18.5088-57.856 27.776-58.581333 47.812267-117.239467 60.177067-175.8976 6.144-20.036267 20.829867-29.294933 43.9808-27.776 20.027733 4.6336 29.294933 17.792 27.767466 39.3472-9.250133 40.1408-17.757867 70.229333-25.454933 90.257067zM764.270933 745.472c-24.695467 20.036267-51.720533 18.5088-80.9984-4.6336-47.8464-55.543467-79.488-137.2672-94.8992-245.333333H474.965333v152.7552c7.7056-3.029333 22.3488-9.258667 43.972267-18.517334 13.892267-4.6336 23.901867-8.465067 30.088533-11.5712 33.92-1.518933 46.2848 13.892267 37.026134 46.293334a6908.458667 6908.458667 0 0 1 48.605866 39.3472c13.883733 18.5088 14.6432 35.4304 2.312534 50.9184-15.4368 12.288-32.401067 11.562667-50.9184-2.312534-1.5616 0-19.310933-16.196267-53.230934-48.597333a236.629333 236.629333 0 0 1-62.4896 23.1424c-44.7744 16.9216-66.3552 7.6544-64.802133-27.776V298.786133c-1.553067-38.562133 19.2768-57.070933 62.4896-55.552 103.355733 0 182.843733-6.152533 238.395733-18.517333 24.661333-4.6336 40.8576 3.114667 48.597334 23.1424 4.625067 24.738133-4.625067 40.942933-27.767467 48.605867-1.5616 0-4.6336 0.7936-9.258667 2.312533-33.954133 7.739733-57.864533 11.562667-71.748266 11.562667 3.072 37.034667 5.393067 74.0608 6.946133 111.095466H738.816c24.669867 1.604267 37.794133 13.892267 39.3472 37.034667 0 23.150933-12.373333 35.515733-37.034667 37.034667H662.442667c12.330667 74.0608 30.088533 130.4064 53.230933 168.96 6.144-7.662933 8.456533-27.776 6.9376-60.177067 1.518933-20.036267 13.090133-30.088533 34.722133-30.088533 20.027733 3.114667 30.08 15.479467 30.08 37.034666 3.080533 83.319467-4.625067 128.017067-23.1424 134.237867z" fill="#00AA90" p-id="1353"></path><path d="M514.312533 317.294933c-24.695467 1.604267-40.1408 2.312533-46.2848 2.312534-6.186667 0-9.258667 2.312533-9.258666 6.9376v94.890666h106.4704a2888.6016 2888.6016 0 0 0-6.946134-106.461866c-4.6336 1.604267-19.310933 2.321067-43.9808 2.321066z" fill="#00AA90" p-id="1354"></path></svg>