<?xml version="1.0" encoding="utf-8"?>
<!-- Generator: Adobe Illustrator 16.0.0, SVG Export Plug-In . SVG Version: 6.00 Build 0)  -->
<!DOCTYPE svg PUBLIC "-//W3C//DTD SVG 1.1//EN" "http://www.w3.org/Graphics/SVG/1.1/DTD/svg11.dtd">
<svg version="1.1" id="图层_1" xmlns="http://www.w3.org/2000/svg" xmlns:xlink="http://www.w3.org/1999/xlink" x="0px" y="0px"
	 width="16px" height="16px" viewBox="0 0 16 16" enable-background="new 0 0 16 16" xml:space="preserve">
<g>
	<path fill="#22AC38" d="M2.251,12.287V3.601c0-0.752,0.61-1.364,1.362-1.364h8.72c0.748,0,1.36,0.612,1.36,1.364v6.474h1.276V3.346
		c0-1.308-1.066-2.373-2.375-2.373H3.348c-1.308,0-2.373,1.064-2.373,2.373v9.249c0,1.31,1.063,2.375,2.373,2.375h6.729v-1.317
		H3.611C2.861,13.65,2.251,13.039,2.251,12.287z"/>
	<path fill="#22AC38" d="M11.214,10.414c0.529-0.698,0.82-1.563,0.82-2.445c0-2.238-1.822-4.063-4.063-4.063
		S3.908,5.727,3.908,7.969c0,2.24,1.821,4.063,4.063,4.063c0.895,0,1.737-0.283,2.446-0.817l3.813,3.813l0.796-0.795L11.214,10.414z
		 M7.972,10.757c-1.537,0-2.786-1.25-2.786-2.788c0-1.535,1.25-2.785,2.786-2.785c1.533,0,2.785,1.25,2.785,2.785
		C10.759,9.507,9.507,10.757,7.972,10.757z"/>
</g>
</svg>
