<?xml version="1.0" encoding="utf-8"?>
<!-- Generator: Adobe Illustrator 16.0.0, SVG Export Plug-In . SVG Version: 6.00 Build 0)  -->
<!DOCTYPE svg PUBLIC "-//W3C//DTD SVG 1.1//EN" "http://www.w3.org/Graphics/SVG/1.1/DTD/svg11.dtd">
<svg version="1.1" id="图层_1" xmlns="http://www.w3.org/2000/svg" xmlns:xlink="http://www.w3.org/1999/xlink" x="0px" y="0px"
	 width="16px" height="20px" viewBox="0 0 16 20" enable-background="new 0 0 16 20" xml:space="preserve">
<path fill="#F39800" d="M15.255,9.792c0-0.914-0.863-1.657-1.928-1.657c-0.586,0-1.146,0.237-1.512,0.631
	c-0.361-0.394-0.922-0.631-1.512-0.631c-0.213,0-0.42,0.03-0.617,0.09c-0.23,0.084-0.889,0.534-0.889,0.534
	C8.069,8.22,7.822,8.206,7.822,8.206C7.817,8.205,7.815,8.204,7.812,8.203C7.24,8.058,6.658,8.142,6.188,8.429V7.345V7.048
	c0.975-0.63,1.627-1.717,1.627-2.962c0-1.951-1.588-3.538-3.539-3.538c-1.95,0-3.537,1.587-3.537,3.538
	c0,1.234,0.637,2.32,1.598,2.953v8.121c0,0.063,0.006,0.104,0.014,0.133v1.32c0,1.564,1.174,2.838,2.617,2.838h7.68
	c1.44,0,2.613-1.271,2.613-2.838L15.255,9.792z M1.563,4.086c0-1.497,1.219-2.716,2.715-2.716c1.498,0,2.717,1.219,2.717,2.716
	c0,0.75-0.311,1.425-0.805,1.916V5.027c0-0.913-0.863-1.656-1.926-1.656c-1.063,0-1.929,0.743-1.929,1.656v0.949
	C1.86,5.487,1.563,4.823,1.563,4.086z M12.647,18.227h-7.68c-0.635,0-1.189-0.754-1.189-1.611L3.765,5.027
	c0-0.236,0.226-0.431,0.5-0.431c0.276,0,0.5,0.193,0.5,0.431v7.094h2.023v-2.33c0-0.044,0.012-0.092,0.033-0.146
	c0.072-0.174,0.254-0.285,0.465-0.285c0.035,0,0.078,0.006,0.134,0.021C7.509,9.402,7.589,9.445,7.649,9.5
	c0.088,0.081,0.135,0.185,0.135,0.291v2.33h2.021v-2.33c0-0.237,0.224-0.433,0.498-0.433c0.276,0,0.502,0.193,0.502,0.433v2.33
	h2.021v-2.33c0-0.237,0.225-0.433,0.498-0.433c0.275,0,0.502,0.193,0.502,0.433l0.006,6.822
	C13.835,17.502,13.302,18.227,12.647,18.227z"/>
</svg>
