<?xml version="1.0" encoding="utf-8"?>
<!-- Generator: Adobe Illustrator 16.0.0, SVG Export Plug-In . SVG Version: 6.00 Build 0)  -->
<!DOCTYPE svg PUBLIC "-//W3C//DTD SVG 1.1//EN" "http://www.w3.org/Graphics/SVG/1.1/DTD/svg11.dtd">
<svg version="1.1" id="图层_1" xmlns="http://www.w3.org/2000/svg" xmlns:xlink="http://www.w3.org/1999/xlink" x="0px" y="0px"
	 width="16px" height="16px" viewBox="0 0 16 16" enable-background="new 0 0 16 16" xml:space="preserve">
<g>
	<path fill="#00B7EE" d="M13.883,12.781H0.933c-0.291,0-0.527,0.236-0.525,0.525c0,0.291,0.235,0.526,0.526,0.526h12.951
		c0.141,0,0.271-0.056,0.373-0.156c0.1-0.102,0.154-0.231,0.152-0.37C14.412,13.018,14.174,12.781,13.883,12.781z"/>
	<path fill="#00B7EE" d="M15.229,1.841c-0.219-0.217-0.541-0.342-0.887-0.342c-0.357,0-0.697,0.132-0.926,0.362l-1.16,1.16H1.933
		c-0.594,0-1.075,0.483-1.075,1.076v7.032c0,0.593,0.481,1.076,1.075,1.076h10.954c0.59-0.002,1.072-0.483,1.074-1.076V4.9
		l1.25-1.248C15.713,3.148,15.721,2.336,15.229,1.841z M8.265,7.012C8.205,7.073,8.162,7.15,8.14,7.234L7.766,8.729
		C7.705,8.984,7.863,9.241,8.113,9.302c0.075,0.019,0.157,0.019,0.231,0l1.49-0.372c0.084-0.021,0.16-0.063,0.225-0.125l2.85-2.851
		l-0.002,5.176c0,0.013-0.01,0.021-0.021,0.021H1.933c-0.014,0-0.021-0.01-0.021-0.021V4.096c0-0.013,0.008-0.021,0.021-0.021h9.272
		L8.265,7.012z M13.855,3.657L9.795,7.718L9.35,7.271l4.063-4.06L13.855,3.657z M14.535,2.98l-0.043,0.041l-0.443-0.444l0.041-0.042
		c0.111-0.11,0.369-0.118,0.461-0.026C14.674,2.641,14.668,2.852,14.535,2.98z"/>
</g>
</svg>
