<?xml version="1.0" standalone="no"?><!DOCTYPE svg PUBLIC "-//W3C//DTD SVG 1.1//EN" "http://www.w3.org/Graphics/SVG/1.1/DTD/svg11.dtd"><svg t="1489453411609" class="icon" style="" viewBox="0 0 1024 1024" version="1.1" xmlns="http://www.w3.org/2000/svg" p-id="3653" xmlns:xlink="http://www.w3.org/1999/xlink" width="20" height="20"><defs><style type="text/css"></style></defs><path d="M211.626667 590.506667l-64.853333 235.52c-3.413333 10.24 0 23.893333 10.24 34.133333 6.826667 6.826667 13.653333 10.24 23.893333 10.24 3.413333 0 6.826667 0 10.24 0l232.106667-61.44c6.826667 0 10.24-3.413333 17.066667-10.24l477.866667-488.106667c0 0 0 0 0 0l0 0L979.626667 238.933333c17.066667-17.066667 23.893333-37.546667 23.893333-58.026667S993.28 136.533333 976.213333 122.88l-85.333333-78.506667c-30.72-27.306667-78.506667-27.306667-109.226667 0L218.453333 573.44C215.04 580.266667 211.626667 583.68 211.626667 590.506667zM733.866667 180.906667l102.4 105.813333L423.253333 709.973333l-119.466667-119.466667L733.866667 180.906667zM846.506667 92.16 931.84 170.666667c3.413333 3.413333 3.413333 6.826667 3.413333 10.24 0 3.413333 0 6.826667-3.413333 10.24l-47.786667 47.786667-102.4-102.4 44.373333-40.96C832.853333 88.746667 839.68 88.746667 846.506667 92.16zM266.24 648.533333l102.4 102.4-139.946667 37.546667L266.24 648.533333z" p-id="3654" fill="#f04a34"></path><path d="M989.866667 453.973333c-20.48 0-34.133333 13.653333-34.133333 34.133333L955.733333 921.6c0 20.48-13.653333 34.133333-34.133333 34.133333L102.4 955.733333c-20.48 0-34.133333-13.653333-34.133333-34.133333L68.266667 102.4c0-20.48 13.653333-34.133333 34.133333-34.133333l392.533333 0c20.48 0 34.133333-13.653333 34.133333-34.133333s-13.653333-34.133333-34.133333-34.133333L102.4 0C44.373333 0 0 44.373333 0 102.4l0 819.2c0 58.026667 44.373333 102.4 102.4 102.4l819.2 0c58.026667 0 102.4-44.373333 102.4-102.4L1024 488.106667C1024 471.04 1010.346667 453.973333 989.866667 453.973333z" p-id="3655" fill="#f04a34"></path></svg>