<?xml version="1.0" standalone="no"?><!DOCTYPE svg PUBLIC "-//W3C//DTD SVG 1.1//EN" "http://www.w3.org/Graphics/SVG/1.1/DTD/svg11.dtd"><svg t="1513925462943" class="icon" style="" viewBox="0 0 1024 1024" version="1.1" xmlns="http://www.w3.org/2000/svg" p-id="5061" xmlns:xlink="http://www.w3.org/1999/xlink" width="200" height="200"><defs><style type="text/css"></style></defs><path d="M427.402413 613.673887h160.163917v20.883878h-160.163917zM431.213603 592.295096l3.17539-1.412488 3.17539-1.831539 3.171777-2.257814 2.893615-2.543202 2.821364-2.821365 2.824978-3.103139 2.680477-3.388528 2.611839-3.525802 2.539589-3.879828 2.398702-3.952078 2.398702-4.165216 2.257814-4.161603 2.185564-4.30249 2.048289-4.515629 2.116927-4.515628 1.831538-4.515628 1.907402-4.515629 1.762901-4.515628 1.694264-4.515628 1.549764-4.374741 1.553376-4.378353 2.821364-8.182319 2.470952-7.763268 2.185564-6.773442 1.835151-5.783617h-37.74704l-0.6358 5.924504-0.776688 6.069005-0.422663 3.17539-0.422663 3.034502-0.494913 3.244027-0.56355 2.965865-0.563551 3.244027-0.56355 3.106752-0.776688 3.244028-0.776688 3.17539-0.704438 3.106752-1.835151 6.206279-0.989826 3.034503-1.127101 3.106752-0.989826 2.962252-1.340238 2.962252-1.267989 2.962252-1.412488 2.824978-1.553376 2.821364-1.549764 2.752727-1.622014 2.608227-1.835151 2.539589-1.835151 2.68409-2.044677 2.326452-2.048289 2.398701-2.257814 2.257814-2.257814 2.189177-2.539589 1.976039-2.53959 1.972426-0.56355 1.484739-0.567163 1.549764-0.422663 1.481126-0.422663 1.553376-0.281775 1.481126-0.422663 1.481126-0.281775 1.553376-0.285388 1.481126 1.343851 0.708051 1.549764 0.986213 1.694264 1.058463 1.835151 1.271601h3.244027v0.845326l3.457165-0.213138 3.388528-0.773075z" p-id="5062" fill="#d81e06"></path><path d="M602.312566 583.82739l-0.140887-0.845326-0.140888-0.776688-0.281775-0.776688-0.281775-0.917575-0.281776-0.917576-0.704438-1.762901-0.848938-2.044677-2.398702-2.539589-2.257814-2.68409-2.257814-2.680477-2.116926-2.680477-2.185565-2.680476-2.048289-2.752728-1.972426-2.752727-1.976039-2.821364-1.976039-2.821365-1.694264-2.821364-1.762901-2.893615-1.622014-2.893614-1.694263-2.962253-1.481126-2.965864-1.484739-2.962252-1.340238-3.034503-1.199351-3.034502-1.267989-3.244027-1.058463-3.034503-0.989826-3.175389-0.917575-3.24764-0.773076-3.244028-0.776688-3.247639-0.563551-3.312665-0.567162-3.460778-0.281776-3.384915-0.281775-3.457165-0.213137-3.529415-0.068638-3.598053 0.068638-3.525802 0.213137-3.73894 0.281775-3.670303 0.213138-0.213138 0.068638-0.140887 0.140887-0.140888v-0.140888l-0.140887-0.140887-0.140888-0.068638v-0.285388l0.140888-0.209525 0.422662-0.354025 0.848939-0.776688 5.501841-5.360954 1.835151-1.835151 1.835152-1.835152 1.762901-1.831538 1.835151-1.766514 1.762902-1.762902-11.289071-23.282579-21.729204 11.993509h-115.856572v28.152233h90.948367l0.07225 4.233853 0.281775 4.302491 0.422663 4.37474 0.56355 4.446991 0.708051 4.443378 0.913963 4.374741 0.989826 4.446991 1.19935 4.443378 1.267989 4.374741 1.553376 4.37474 1.553376 4.374741 1.694264 4.233853 1.903789 4.233853 1.976039 4.233853 2.185564 4.092966 2.189176 4.092965 2.326452 3.948466 2.53959 3.952078 2.543201 3.81119 2.749115 3.598053 2.824977 3.598052 2.890002 3.384915 3.106752 3.316278 3.10314 3.106752 3.244028 2.962252 3.388527 2.821365 3.384915 2.611839 3.529415 2.539589 3.598053 2.257815 3.670302 2.116926 3.738941 1.835152 3.879827 1.694263h1.340239l1.271601-0.140887h1.127101l1.130713-0.1445 0.986213-0.209526 0.989826-0.281775 0.845326-0.213137 0.845325-0.281776 0.708051-0.354025 0.704438-0.350413 0.6358-0.422663 0.494913-0.426275 0.4913-0.4913 0.422663-0.494913 0.354026-0.56355 0.281775-0.567163 0.281775-0.563551 0.140888-0.56355 0.140887-0.704438 0.07225-0.708051 0.07225-0.704438-0.07225-0.704438z" p-id="5063" fill="#d81e06"></path><path d="M773.906442 33.343399h-523.812884c-119.7364 0-216.750159 97.086009-216.750159 216.750159v523.812884c0 119.66415 97.013759 216.750159 216.750159 216.750159h523.812884c119.66415 0 216.750159-97.086009 216.750159-216.750159v-523.812884c0-119.66415-97.086009-216.750159-216.750159-216.750159z m-109.361293 554.154294l91.865943 275.594214-246.033106-177.095717-239.610075 173.92394 88.477415-272.418825-219.853299-164.115995h278.982742l95.18222-275.875989 91.865942 275.875989h279.123629l-220.001411 164.112383z" p-id="5064" fill="#d81e06"></path></svg>