<?xml version="1.0" standalone="no"?><!DOCTYPE svg PUBLIC "-//W3C//DTD SVG 1.1//EN" "http://www.w3.org/Graphics/SVG/1.1/DTD/svg11.dtd"><svg t="1489478787823" class="icon" style="" viewBox="0 0 1024 1024" version="1.1" xmlns="http://www.w3.org/2000/svg" p-id="2245" xmlns:xlink="http://www.w3.org/1999/xlink" width="16" height="16"><defs><style type="text/css"></style></defs><path d="M512.005628 640.125099c-13.320377 0-24.12035-10.81123-24.12035-24.12035L487.885278 286.784632c0-13.3214 10.800997-24.121374 24.12035-24.121374 13.3214 0 24.121374 10.799974 24.121374 24.121374l0 329.220117C536.127002 629.313869 525.326005 640.125099 512.005628 640.125099z" p-id="2246" fill="#1C86EE"></path><path d="M512.005628 802.854321c-13.320377 0-24.12035-10.788717-24.12035-24.121374l0-64.807005c0-13.332656 10.800997-24.121374 24.12035-24.121374 13.3214 0 24.121374 10.788717 24.121374 24.121374l0 64.807005C536.127002 792.065604 525.326005 802.854321 512.005628 802.854321z" p-id="2247" fill="#1C86EE"></path><path d="M512.005628 958.13285c-246.01509 0-446.155363-200.129017-446.155363-446.12671 0-246.009973 200.140273-446.13899 446.155363-446.13899 246.003833 0 446.144106 200.129017 446.144106 446.13899C958.149734 758.00281 758.009462 958.13285 512.005628 958.13285zM512.005628 114.108874c-219.409129 0-397.913639 178.493254-397.913639 397.896242 0 219.402989 178.50451 397.883963 397.913639 397.883963 219.409129 0 397.902382-178.480974 397.902382-397.883963C909.90801 292.602128 731.414757 114.108874 512.005628 114.108874z" p-id="2248" fill="#1C86EE"></path></svg>